<svg width="1080" height="600" viewBox="0 0 1080 600" xmlns="http://www.w3.org/2000/svg">
  <defs>
    <style>
      .label { font: 28px 'Verdana', sans-serif; fill: #111; }
      .tag   { font: 18px 'Verdana', sans-serif; fill: #fff; font-weight: 700; }
      .mono  { font: 22px 'Courier New', monospace; fill: #111; }
    </style>
  </defs>

  <!-- Background grass -->
  <rect width="1080" height="600" fill="#3f7a3f"/>
  <!-- Road -->
  <rect x="240" y="0" width="600" height="600" fill="#333"/>
  <!-- Center dashed line -->
  <g stroke="#eee" stroke-width="6">
    <line x1="540" y1="0" x2="540" y2="60"/>
    <line x1="540" y1="100" x2="540" y2="160"/>
    <line x1="540" y1="200" x2="540" y2="260"/>
    <line x1="540" y1="300" x2="540" y2="360"/>
    <line x1="540" y1="400" x2="540" y2="460"/>
    <line x1="540" y1="500" x2="540" y2="560"/>
  </g>

  <!-- Car -->
  <g transform="translate(510,420)">
    <rect x="-30" y="0" width="60" height="100" rx="6" fill="#d82426" stroke="#111" stroke-width="4"/>
    <rect x="-24" y="12" width="48" height="30" fill="#fff" opacity="0.9"/>
    <rect x="-24" y="58" width="48" height="28" fill="#fff" opacity="0.9"/>
  </g>

  <!-- Bubble with BACKSEAT tag -->
  <g transform="translate(650,320)">
    <rect x="-250" y="-70" width="410" height="100" rx="18" fill="#fff" stroke="#111" stroke-width="4"/>
    <path d="M-30,30 l18,24 l12,-36 z" fill="#fff" stroke="#111" stroke-width="4"/>

    <!-- Tag pill -->
    <rect x="-240" y="-92" width="140" height="34" rx="17" fill="#4A8FFF" stroke="#111" stroke-width="3"/>
    <text class="tag" x="-228" y="-69">BACKSEAT</text>

    <!-- Text -->
    <text class="label" x="-220" y="-16">When's lunch?</text>
  </g>

  <!-- Caption -->
  <text class="mono" x="20" y="40">Option 4: Backseat Tag Pill</text>
</svg>

