<svg width="1080" height="600" viewBox="0 0 1080 600" xmlns="http://www.w3.org/2000/svg">
  <defs>
    <style>
      .ui    { font: 28px 'Press Start 2P', 'VT323', monospace; fill: #111; }
      .mono  { font: 22px 'Courier New', monospace; fill: #111; }
    </style>
    <filter id="shadow" x="-50%" y="-50%" width="200%" height="200%">
      <feOffset dx="0" dy="6"/>
      <feGaussianBlur stdDeviation="6" result="b"/>
      <feColorMatrix type="matrix" values="0 0 0 0 0  0 0 0 0 0  0 0 0 0 0  0 0 0 0.4 0"/>
      <feBlend in2="b" mode="normal"/>
    </filter>
  </defs>

  <!-- Background grass -->
  <rect width="1080" height="600" fill="#3f7a3f"/>
  <!-- Road -->
  <rect x="240" y="0" width="600" height="600" fill="#333"/>
  <!-- Center dashed line -->
  <g stroke="#eee" stroke-width="6">
    <line x1="540" y1="0" x2="540" y2="60"/>
    <line x1="540" y1="100" x2="540" y2="160"/>
    <line x1="540" y1="200" x2="540" y2="260"/>
    <line x1="540" y1="300" x2="540" y2="360"/>
    <line x1="540" y1="400" x2="540" y2="460"/>
    <line x1="540" y1="500" x2="540" y2="560"/>
  </g>

  <!-- Car -->
  <g transform="translate(510,420)">
    <rect x="-30" y="0" width="60" height="100" rx="6" fill="#d82426" stroke="#111" stroke-width="4"/>
    <rect x="-24" y="12" width="48" height="30" fill="#fff" opacity="0.9"/>
    <rect x="-24" y="58" width="48" height="28" fill="#fff" opacity="0.9"/>
  </g>

  <!-- Polaroid snapshot overlay with kids -->
  <g transform="translate(770,180) rotate(-12)" filter="url(#shadow)">
    <rect x="-160" y="-140" width="320" height="360" fill="#fff" stroke="#ddd" stroke-width="6"/>
    <rect x="-130" y="-110" width="260" height="220" fill="#89c2ff"/>
    <!-- Pixel kids inside photo -->
    <g transform="translate(-115,-95) scale(5)">
      <!-- seat/backdrop -->
      <rect x="0" y="22" width="48" height="6" fill="#2d2d2d"/>
      <!-- kid left -->
      <rect x="6" y="6" width="10" height="4" fill="#5b3a29"/>
      <rect x="6" y="10" width="10" height="8" fill="#ffd6c9"/>
      <rect x="8" y="12" width="2" height="2" fill="#111"/>
      <rect x="12" y="12" width="2" height="2" fill="#111"/>
      <rect x="10" y="15" width="2" height="2" fill="#c0392b"/>
      <!-- kid right -->
      <rect x="30" y="6" width="10" height="4" fill="#2e294e"/>
      <rect x="30" y="10" width="10" height="8" fill="#ffd6c9"/>
      <rect x="32" y="12" width="2" height="2" fill="#111"/>
      <rect x="36" y="12" width="2" height="2" fill="#111"/>
      <rect x="34" y="15" width="2" height="2" fill="#c0392b"/>
    </g>
    <!-- Caption area of polaroid -->
    <text class="ui" x="-120" y="180">BACKSEAT CREW</text>
  </g>

  <!-- Bubble pointing to the photo as if it's the speaker source -->
  <g transform="translate(650,360)">
    <rect x="-260" y="-70" width="380" height="100" rx="14" fill="#fff" stroke="#111" stroke-width="4"/>
    <path d="M100,-70 l20,-26 l-36,12 z" fill="#fff" stroke="#111" stroke-width="4"/>
    <text class="ui" x="-240" y="-16">Picture says: "We’re hungry!"</text>
  </g>

  <text class="mono" x="20" y="40">Retro Option D: Polaroid Snapshot + Caption</text>
</svg>

